<svg class="mx-auto my-10" width="88" height="88" viewBox="0 0 88 72" fill="none" xmlns="http://www.w3.org/2000/svg">
  <path fill-rule="evenodd" clip-rule="evenodd" d="M23.8612 2.98265L26.8438 0H38.7744L41.757 2.98265V68.6009L38.7744 71.5835H26.8438L23.8612 68.6009V2.98265ZM29.8265 5.96529V65.6182H35.7918V5.96529H29.8265ZM48.7424 8.02332L50.526 4.19957L61.7408 0.119306L65.5586 1.90293L88 63.5602L86.2164 67.3839L75.0076 71.4642L71.1898 69.6806L48.7364 8.02332H48.7424ZM55.3639 8.78688L75.7652 64.8368L81.3726 62.8026L60.9713 6.74675L55.3639 8.78688ZM0 2.98265L2.98265 0H14.9132L17.8959 2.98265V68.6009L14.9132 71.5835H2.98265L0 68.6009V2.98265ZM5.96529 5.96529V65.6182H11.9306V5.96529H5.96529Z" fill="#002633"/>
</svg> 