<svg class="mx-auto my-10" width="88" height="88" viewBox="0 0 89 88" fill="none" xmlns="http://www.w3.org/2000/svg">
  <path d="M85.3571 0H3.64286L0.5 3.14286V84.8571L3.64286 88H85.3571L88.5 84.8571V3.14286L85.3571 0ZM82.2143 81.7143H25.6429V69.1429H40.1C41.9857 72.9143 46.3857 75.4286 50.7857 75.4286C57.7 75.4286 63.3571 69.7714 63.3571 62.8571C63.3571 55.9429 57.7 50.2857 50.7857 50.2857C43.8714 50.2857 38.2143 55.9429 38.2143 62.8571H19.3571V81.7143H6.78571V6.28571H19.3571V20.7429C15.5857 22.6286 13.0714 27.0286 13.0714 31.4286C13.0714 38.3429 18.7286 44 25.6429 44C32.5571 44 38.2143 38.3429 38.2143 31.4286H50.7857C50.7857 38.3429 56.4429 44 63.3571 44C70.2714 44 75.9286 38.3429 75.9286 31.4286C75.9286 24.5143 70.2714 18.8571 63.3571 18.8571C58.9571 18.8571 54.5571 21.3714 52.6714 25.1429H36.3286C34.4429 21.3714 30.0429 18.8571 25.6429 18.8571V6.28571H82.2143V81.7143ZM44.5 62.8571C44.5 59.0857 47.0143 56.5714 50.7857 56.5714C54.5571 56.5714 57.0714 59.0857 57.0714 62.8571C57.0714 66.6286 54.5571 69.1429 50.7857 69.1429C47.0143 69.1429 44.5 66.6286 44.5 62.8571ZM25.6429 25.1429C29.4143 25.1429 31.9286 27.6571 31.9286 31.4286C31.9286 35.2 29.4143 37.7143 25.6429 37.7143C21.8714 37.7143 19.3571 35.2 19.3571 31.4286C19.3571 27.6571 21.8714 25.1429 25.6429 25.1429ZM63.3571 25.1429C67.1286 25.1429 69.6429 27.6571 69.6429 31.4286C69.6429 35.2 67.1286 37.7143 63.3571 37.7143C59.5857 37.7143 57.0714 35.2 57.0714 31.4286C57.0714 27.6571 59.5857 25.1429 63.3571 25.1429Z" fill="#002633"/>
</svg>  