<svg class="mx-auto my-10" width="88" height="88" viewBox="0 0 89 88" fill="none" xmlns="http://www.w3.org/2000/svg">
  <path d="M79.0701 53.433C79.066 50.1 77.7403 46.9046 75.3838 44.5475C73.0273 42.1904 69.8322 40.8639 66.4992 40.8589H22.5008C20.8346 40.8564 19.2373 40.1934 18.0591 39.0152C16.8809 37.837 16.2179 36.2397 16.2154 34.5734V24.6958C18.3756 24.1328 20.3466 23.0041 21.9254 21.4258C23.5041 19.8476 24.6336 17.877 25.1973 15.717H63.8027C64.5676 18.6795 66.3868 21.2614 68.9191 22.9786C71.4515 24.6958 74.5232 25.4305 77.5585 25.045C80.5938 24.6595 83.3843 23.1802 85.4069 20.8844C87.4295 18.5886 88.5454 15.6339 88.5454 12.5743C88.5454 9.51457 87.4295 6.55991 85.4069 4.26413C83.3843 1.96834 80.5938 0.489032 77.5585 0.103498C74.5232 -0.282036 71.4515 0.452671 68.9191 2.1699C66.3868 3.88713 64.5676 6.46899 63.8027 9.43152H25.1973C24.6477 7.28692 23.5405 5.32594 21.9879 3.74769C20.4354 2.16944 18.4928 1.03012 16.3575 0.445436C14.2222 -0.139253 11.9703 -0.148494 9.83025 0.41865C7.69024 0.985795 5.73841 2.10913 4.17296 3.67458C2.6075 5.24004 1.48417 7.19187 0.917025 9.33188C0.349881 11.4719 0.359122 13.7239 0.943811 15.8592C1.5285 17.9944 2.66781 19.937 4.24606 21.4895C5.82432 23.0421 7.7853 24.1494 9.92989 24.6989V34.5703C9.93405 37.9039 11.2602 41.0997 13.6174 43.4569C15.9746 45.8141 19.1704 47.1402 22.504 47.1444H66.4992C68.166 47.1469 69.7637 47.8103 70.942 48.9892C72.1203 50.1681 72.783 51.7662 72.7847 53.433V62.8581H63.3564V72.2863H25.1973C24.4324 69.3237 22.6133 66.7419 20.0809 65.0247C17.5486 63.3074 14.4768 62.5727 11.4415 62.9583C8.40625 63.3438 5.61575 64.8231 3.59312 67.1189C1.57049 69.4147 0.45459 72.3693 0.45459 75.429C0.45459 78.4887 1.57049 81.4434 3.59312 83.7391C5.61575 86.0349 8.40625 87.5142 11.4415 87.8998C14.4768 88.2853 17.5486 87.5506 20.0809 85.8334C22.6133 84.1161 24.4324 81.5343 25.1973 78.5718H63.3564V88H88.4983V62.8581H79.0701V53.433ZM75.9274 6.28878C77.1705 6.28878 78.3858 6.65742 79.4194 7.34807C80.4531 8.03873 81.2587 9.02039 81.7344 10.1689C82.2101 11.3174 82.3346 12.5812 82.0921 13.8005C81.8496 15.0198 81.2509 16.1397 80.3719 17.0188C79.4929 17.8978 78.3729 18.4964 77.1536 18.739C75.9344 18.9815 74.6706 18.857 73.522 18.3813C72.3735 17.9055 71.3919 17.0999 70.7012 16.0663C70.0106 15.0326 69.6419 13.8174 69.6419 12.5743C69.6436 10.9078 70.3063 9.30999 71.4847 8.13159C72.6631 6.9532 74.2609 6.29044 75.9274 6.28878ZM6.78715 12.5743C6.78715 11.3311 7.15579 10.1159 7.84645 9.08223C8.5371 8.04859 9.51876 7.24296 10.6673 6.76723C11.8158 6.2915 13.0796 6.16703 14.2989 6.40955C15.5181 6.65208 16.6381 7.25071 17.5171 8.12975C18.3962 9.00879 18.9948 10.1288 19.2373 11.348C19.4799 12.5673 19.3554 13.8311 18.8797 14.9796C18.4039 16.1281 17.5983 17.1098 16.5647 17.8004C15.531 18.4911 14.3158 18.8597 13.0726 18.8597C11.4061 18.8581 9.80836 18.1953 8.62997 17.0169C7.45157 15.8385 6.78882 14.2408 6.78715 12.5743ZM13.0726 81.7145C11.8295 81.7145 10.6142 81.3459 9.58061 80.6552C8.54697 79.9645 7.74134 78.9829 7.26561 77.8344C6.78987 76.6858 6.6654 75.422 6.90793 74.2028C7.15045 72.9835 7.74909 71.8636 8.62813 70.9845C9.50717 70.1055 10.6271 69.5068 11.8464 69.2643C13.0657 69.0218 14.3295 69.1463 15.478 69.622C16.6265 70.0977 17.6082 70.9033 18.2988 71.937C18.9895 72.9706 19.3581 74.1859 19.3581 75.429C19.3564 77.0955 18.6937 78.6933 17.5153 79.8717C16.3369 81.0501 14.7391 81.7128 13.0726 81.7145ZM82.2129 69.1435V81.7145H69.6419V69.1435H82.2129Z" fill="#002633"/>
</svg>